<svg xmlns="http://www.w3.org/2000/svg" viewBox="0 0 500 500"><g id="freepik--Plants--inject-385"><path d="M418.84,448s-7-15.24-.44-17.85,21.54,7.16,21.54,7.16-19.8-24.14-14.57-38.08,22.2,5.66,22.2,5.66-14.8-39.18-.87-39.62,20.63,46.87,20.63,46.87,7.67-16.39,10.28-7.25-1.3,20.9-1.3,20.9,7.4-13.49,8.27-3S478.92,448,478.92,448Z" style="fill:#dedede"></path><path d="M428.21,402.67c1.42.62,4.89.54,4.89.54s-.75-2.27-.81-2.41c-.76-1.59-3.17-4.22-5.13-4a2.34,2.34,0,0,0-1.88,2.93A4.91,4.91,0,0,0,428.21,402.67Z" style="fill:#263238"></path><path d="M429.41,412.72c1.47.22,4.56-.68,4.81-.75a41.72,41.72,0,0,0,1.88,5.2c.43,1,.89,2,1.36,2.94l-.58-.83c-1.16-1.34-4.17-3.24-6-2.46a2.33,2.33,0,0,0-1,3.32,4.9,4.9,0,0,0,3.59,2,15.55,15.55,0,0,0,4.68-.72c.18.38.37.75.55,1.12.9,1.79,1.8,3.57,2.63,5.34.3.62.56,1.25.83,1.87l-.5-.72c-1.16-1.33-4.17-3.23-6-2.46a2.34,2.34,0,0,0-1,3.33,4.88,4.88,0,0,0,3.59,2,14.77,14.77,0,0,0,4.55-.68c.26.65.51,1.3.73,1.94.14.44.31.85.42,1.3s.25.88.37,1.32c.2.84.42,1.71.59,2.54.13.58.24,1.13.35,1.68-.28-.62-.86-1.83-.92-1.93-.94-1.49-3.64-3.83-5.55-3.34a2.33,2.33,0,0,0-1.53,3.13,4.91,4.91,0,0,0,3.24,2.54,16.16,16.16,0,0,0,4.84,0c.19.92.36,1.82.51,2.66.33,1.87.57,3.55.76,5h1.3c-.23-1.47-.52-3.22-.91-5.18-.19-.94-.4-1.93-.63-2.95a24.81,24.81,0,0,0,2.7-1.27,17,17,0,0,0,3.95,2.54c-.36.87-.71,1.71-1,2.5-.72,1.65-1.4,3.11-2,4.36h1.4c.52-1.15,1.08-2.46,1.68-3.9.36-.88.73-1.83,1.1-2.81a16,16,0,0,0,4.83.38,4.88,4.88,0,0,0,3.42-2.29,2.34,2.34,0,0,0-1.29-3.24c-1.87-.63-4.74,1.5-5.78,2.92-.07.09-.63,1.07-1,1.7l.44-1.2c.3-.82.58-1.64.88-2.52.12-.44.25-.87.39-1.31s.23-.91.35-1.37c.25-1.07.46-2.17.64-3.28a15.53,15.53,0,0,0,4.59,1.06,4.92,4.92,0,0,0,3.73-1.75,2.34,2.34,0,0,0-.79-3.39c-1.76-.91-4.91.76-6.16,2-.08.07-.87,1.07-1.3,1.62.1-.66.21-1.33.3-2,.24-2,.42-4,.62-5.94.06-.61.12-1.21.19-1.82a15.88,15.88,0,0,0,4.74,1.11,4.87,4.87,0,0,0,3.73-1.74,2.35,2.35,0,0,0-.79-3.4c-1.76-.9-4.91.77-6.16,2-.09.1-1.24,1.53-1.51,1.91.14-1.34.29-2.67.5-4a40.9,40.9,0,0,1,1.14-5.22c.12,0,3.25,1.22,4.77,1.12a4.91,4.91,0,0,0,3.73-1.75,2.34,2.34,0,0,0-.79-3.39c-1.76-.91-4.91.76-6.16,2-.1.1-1.33,1.64-1.53,1.94,0-.1,0-.21.07-.31a31.56,31.56,0,0,1,2.07-4.94c.45-.88.93-1.7,1.42-2.48a15.89,15.89,0,0,0,4.51,1.59,4.91,4.91,0,0,0,3.9-1.33,2.34,2.34,0,0,0-.41-3.46c-1.65-1.09-5,.23-6.34,1.33-.08.06-.77.75-1.27,1.26.22-.35.44-.71.67-1.05.82-1.24,1.66-2.33,2.4-3.29.43-.54.83-1,1.21-1.47a15.77,15.77,0,0,0,4.72-.67,4.9,4.9,0,0,0,2.84-3,2.35,2.35,0,0,0-1.95-2.89c-2-.21-4.31,2.49-5,4.1-.07.14-.79,2.43-.75,2.43h0c-.37.42-.76.88-1.19,1.39-.76.94-1.62,2-2.48,3.25a41.72,41.72,0,0,0-2.58,4.11,30.36,30.36,0,0,0-2.2,5l0,.06c0-.58,0-2.2,0-2.32-.23-1.76-1.7-5-3.64-5.37a2.35,2.35,0,0,0-2.7,2.21,4.85,4.85,0,0,0,1.88,3.66,16.15,16.15,0,0,0,4.43,2,41.83,41.83,0,0,0-1.3,5.38c-.19,1-.35,2.13-.49,3.2,0-.5,0-.95,0-1-.22-1.75-1.69-5-3.64-5.36a2.33,2.33,0,0,0-2.69,2.2,4.87,4.87,0,0,0,1.87,3.66,15.63,15.63,0,0,0,4.3,2l-.15,1.24c-.24,2-.47,4-.75,5.9-.1.68-.22,1.35-.34,2,0-.45,0-.82,0-.88-.22-1.75-1.69-5-3.64-5.36a2.35,2.35,0,0,0-2.7,2.2,4.94,4.94,0,0,0,1.88,3.67,15.19,15.19,0,0,0,4.18,1.94c-.15.68-.29,1.36-.46,2-.13.44-.22.88-.37,1.32l-.42,1.3c-.3.81-.6,1.66-.91,2.45-.21.55-.42,1.07-.63,1.59.11-.68.29-2,.29-2.12a9.05,9.05,0,0,0-1.22-4.42,2.27,2.27,0,0,0,0-.52,2.34,2.34,0,0,0-2.86-2c-1.91.5-3.13,3.86-3.22,5.62,0,.11.07,1.24.12,2-.09-.42-.18-.82-.29-1.25-.2-.84-.42-1.68-.66-2.58-.13-.44-.26-.87-.4-1.31s-.31-.89-.46-1.34c-.38-1-.81-2.06-1.27-3.09a15,15,0,0,0,4.41-1.65,4.89,4.89,0,0,0,2.15-3.51,2.35,2.35,0,0,0-2.53-2.4c-2,.22-3.67,3.35-4,5.08,0,.11-.14,1.38-.19,2.07-.28-.61-.56-1.23-.86-1.84-.88-1.77-1.83-3.53-2.76-5.3-.29-.54-.57-1.08-.85-1.62a16.33,16.33,0,0,0,4.57-1.69,4.89,4.89,0,0,0,2.15-3.51,2.34,2.34,0,0,0-2.53-2.4c-2,.22-3.67,3.35-4,5.08,0,.13-.19,1.95-.21,2.42-.62-1.19-1.22-2.38-1.77-3.59a40.21,40.21,0,0,1-1.93-5c.12,0,3.39-.77,4.59-1.7a4.87,4.87,0,0,0,2.15-3.51,2.34,2.34,0,0,0-2.53-2.39c-2,.21-3.67,3.34-4,5.07,0,.14-.2,2.1-.21,2.46,0-.1-.07-.2-.1-.3a30.17,30.17,0,0,1-1-5.26c-.11-1-.16-1.93-.19-2.85a15.55,15.55,0,0,0,4.64-1.16,4.9,4.9,0,0,0,2.52-3.26,2.34,2.34,0,0,0-2.25-2.66c-2,0-4,2.92-4.56,4.6,0,.1-.23,1.06-.36,1.76,0-.42,0-.84,0-1.24,0-1.5.1-2.87.19-4.08.06-.69.13-1.31.2-1.89a15.83,15.83,0,0,0,3.56-3.16,4.89,4.89,0,0,0,.73-4.05A2.34,2.34,0,0,0,434.8,387c-1.75.91-2.22,4.45-1.93,6.19,0,.15.69,2.46.72,2.44l0,0c-.08.55-.16,1.15-.23,1.81-.12,1.21-.24,2.58-.28,4.08a40.33,40.33,0,0,0,.12,4.85,29.91,29.91,0,0,0,.9,5.35.14.14,0,0,0,0,.06c-.31-.48-1.23-1.82-1.31-1.92-1.16-1.33-4.17-3.23-6-2.46a2.34,2.34,0,0,0-1,3.32A4.86,4.86,0,0,0,429.41,412.72Z" style="fill:#263238"></path><path d="M463.32,403.43s.63-2.3.65-2.46c.24-1.74-.32-5.27-2.1-6.13a2.34,2.34,0,0,0-3.18,1.41,4.91,4.91,0,0,0,.84,4C460.38,401.58,463.31,403.43,463.32,403.43Z" style="fill:#263238"></path></g><g id="freepik--City--inject-385"><g style="opacity:0.30000000000000004"><line x1="481.85" y1="317.31" x2="481.85" y2="324.85" style="fill:none;stroke:#000;stroke-linecap:round;stroke-miterlimit:10"></line><polyline points="414.12 190.3 427.49 190.3 427.49 70.88 481.85 70.88 481.85 311.29" style="fill:none;stroke:#000;stroke-linecap:round;stroke-miterlimit:10"></polyline><polyline points="223.25 132.04 241.49 132.04 241.49 224.9 278.42 224.9 278.42 235.6 301.48 235.6 301.48 163.79 317.13 163.79 317.13 235.6 327.84 235.6 327.84 159.83 345.13 159.83 345.13 232.31 366.55 232.31 366.55 110.41 405.26 110.41 405.26 190.3 409.16 190.3" style="fill:none;stroke:#000;stroke-linecap:round;stroke-miterlimit:10"></polyline><polyline points="107.48 224.07 181.23 224.07 181.23 132.04 218.29 132.04" style="fill:none;stroke:#000;stroke-linecap:round;stroke-miterlimit:10"></polyline><polyline points="61.57 70.05 88.98 70.05 88.98 224.07 97.96 224.07" style="fill:none;stroke:#000;stroke-linecap:round;stroke-miterlimit:10"></polyline><polyline points="16.43 300.98 21.45 300.98 21.45 70.05 52.05 70.05" style="fill:none;stroke:#000;stroke-linecap:round;stroke-miterlimit:10"></polyline><rect x="448.08" y="88.17" width="6.59" height="8.24" style="fill:none;stroke:#000;stroke-linecap:round;stroke-miterlimit:10"></rect><rect x="458.79" y="88.17" width="6.59" height="8.24" style="fill:none;stroke:#000;stroke-linecap:round;stroke-miterlimit:10"></rect><rect x="469.5" y="88.17" width="6.59" height="8.24" style="fill:none;stroke:#000;stroke-linecap:round;stroke-miterlimit:10"></rect><rect x="448.08" y="108.76" width="6.59" height="8.24" style="fill:none;stroke:#000;stroke-linecap:round;stroke-miterlimit:10"></rect><rect x="458.79" y="108.76" width="6.59" height="8.24" style="fill:none;stroke:#000;stroke-linecap:round;stroke-miterlimit:10"></rect><rect x="469.5" y="108.76" width="6.59" height="8.24" style="fill:none;stroke:#000;stroke-linecap:round;stroke-miterlimit:10"></rect><rect x="448.08" y="129.35" width="6.59" height="8.24" style="fill:none;stroke:#000;stroke-linecap:round;stroke-miterlimit:10"></rect><rect x="458.79" y="129.35" width="6.59" height="8.24" style="fill:none;stroke:#000;stroke-linecap:round;stroke-miterlimit:10"></rect><rect x="469.5" y="129.35" width="6.59" height="8.24" style="fill:none;stroke:#000;stroke-linecap:round;stroke-miterlimit:10"></rect><rect x="448.08" y="149.95" width="6.59" height="8.24" style="fill:none;stroke:#000;stroke-linecap:round;stroke-miterlimit:10"></rect><rect x="458.79" y="149.95" width="6.59" height="8.24" style="fill:none;stroke:#000;stroke-linecap:round;stroke-miterlimit:10"></rect><rect x="469.5" y="149.95" width="6.59" height="8.24" style="fill:none;stroke:#000;stroke-linecap:round;stroke-miterlimit:10"></rect><rect x="448.08" y="170.54" width="6.59" height="8.24" style="fill:none;stroke:#000;stroke-linecap:round;stroke-miterlimit:10"></rect><rect x="458.79" y="170.54" width="6.59" height="8.24" style="fill:none;stroke:#000;stroke-linecap:round;stroke-miterlimit:10"></rect><rect x="469.5" y="170.54" width="6.59" height="8.24" style="fill:none;stroke:#000;stroke-linecap:round;stroke-miterlimit:10"></rect><rect x="448.08" y="191.13" width="6.59" height="8.24" style="fill:none;stroke:#000;stroke-linecap:round;stroke-miterlimit:10"></rect><rect x="458.79" y="191.13" width="6.59" height="8.24" style="fill:none;stroke:#000;stroke-linecap:round;stroke-miterlimit:10"></rect><rect x="469.5" y="191.13" width="6.59" height="8.24" style="fill:none;stroke:#000;stroke-linecap:round;stroke-miterlimit:10"></rect><rect x="448.08" y="211.72" width="6.59" height="8.24" style="fill:none;stroke:#000;stroke-linecap:round;stroke-miterlimit:10"></rect><rect x="458.79" y="211.72" width="6.59" height="8.24" style="fill:none;stroke:#000;stroke-linecap:round;stroke-miterlimit:10"></rect><rect x="469.5" y="211.72" width="6.59" height="8.24" style="fill:none;stroke:#000;stroke-linecap:round;stroke-miterlimit:10"></rect><rect x="448.08" y="232.31" width="6.59" height="8.24" style="fill:none;stroke:#000;stroke-linecap:round;stroke-miterlimit:10"></rect><rect x="458.79" y="232.31" width="6.59" height="8.24" style="fill:none;stroke:#000;stroke-linecap:round;stroke-miterlimit:10"></rect><rect x="469.5" y="232.31" width="6.59" height="8.24" style="fill:none;stroke:#000;stroke-linecap:round;stroke-miterlimit:10"></rect><rect x="448.08" y="252.9" width="6.59" height="8.24" style="fill:none;stroke:#000;stroke-linecap:round;stroke-miterlimit:10"></rect><rect x="435.7" y="88.17" width="6.59" height="8.24" style="fill:none;stroke:#000;stroke-linecap:round;stroke-miterlimit:10"></rect><rect x="435.7" y="108.76" width="6.59" height="8.24" style="fill:none;stroke:#000;stroke-linecap:round;stroke-miterlimit:10"></rect><rect x="435.7" y="129.35" width="6.59" height="8.24" style="fill:none;stroke:#000;stroke-linecap:round;stroke-miterlimit:10"></rect><rect x="435.7" y="149.95" width="6.59" height="8.24" style="fill:none;stroke:#000;stroke-linecap:round;stroke-miterlimit:10"></rect><rect x="435.7" y="170.54" width="6.59" height="8.24" style="fill:none;stroke:#000;stroke-linecap:round;stroke-miterlimit:10"></rect><rect x="435.7" y="191.13" width="6.59" height="8.24" style="fill:none;stroke:#000;stroke-linecap:round;stroke-miterlimit:10"></rect><rect x="435.7" y="211.72" width="6.59" height="8.24" style="fill:none;stroke:#000;stroke-linecap:round;stroke-miterlimit:10"></rect><rect x="435.7" y="232.31" width="6.59" height="8.24" style="fill:none;stroke:#000;stroke-linecap:round;stroke-miterlimit:10"></rect><rect x="435.7" y="252.9" width="6.59" height="8.24" style="fill:none;stroke:#000;stroke-linecap:round;stroke-miterlimit:10"></rect><rect x="458.79" y="252.9" width="6.59" height="8.24" style="fill:none;stroke:#000;stroke-linecap:round;stroke-miterlimit:10"></rect><rect x="377.98" y="129.35" width="6.59" height="8.24" style="fill:none;stroke:#000;stroke-linecap:round;stroke-miterlimit:10"></rect><rect x="388.69" y="129.35" width="6.59" height="8.24" style="fill:none;stroke:#000;stroke-linecap:round;stroke-miterlimit:10"></rect><rect x="377.98" y="149.95" width="6.59" height="8.24" style="fill:none;stroke:#000;stroke-linecap:round;stroke-miterlimit:10"></rect><rect x="388.69" y="149.95" width="6.59" height="8.24" style="fill:none;stroke:#000;stroke-linecap:round;stroke-miterlimit:10"></rect><rect x="377.98" y="170.54" width="6.59" height="8.24" style="fill:none;stroke:#000;stroke-linecap:round;stroke-miterlimit:10"></rect><rect x="388.69" y="170.54" width="6.59" height="8.24" style="fill:none;stroke:#000;stroke-linecap:round;stroke-miterlimit:10"></rect><rect x="377.98" y="191.13" width="6.59" height="8.24" style="fill:none;stroke:#000;stroke-linecap:round;stroke-miterlimit:10"></rect><rect x="388.69" y="191.13" width="6.59" height="8.24" style="fill:none;stroke:#000;stroke-linecap:round;stroke-miterlimit:10"></rect><rect x="377.98" y="211.72" width="6.59" height="8.24" style="fill:none;stroke:#000;stroke-linecap:round;stroke-miterlimit:10"></rect><rect x="388.69" y="211.72" width="6.59" height="8.24" style="fill:none;stroke:#000;stroke-linecap:round;stroke-miterlimit:10"></rect><rect x="377.98" y="232.31" width="6.59" height="8.24" style="fill:none;stroke:#000;stroke-linecap:round;stroke-miterlimit:10"></rect><rect x="388.69" y="232.31" width="6.59" height="8.24" style="fill:none;stroke:#000;stroke-linecap:round;stroke-miterlimit:10"></rect><rect x="377.98" y="252.9" width="6.59" height="8.24" style="fill:none;stroke:#000;stroke-linecap:round;stroke-miterlimit:10"></rect><rect x="388.69" y="252.9" width="6.59" height="8.24" style="fill:none;stroke:#000;stroke-linecap:round;stroke-miterlimit:10"></rect><rect x="189.28" y="149.95" width="6.59" height="8.24" style="fill:none;stroke:#000;stroke-linecap:round;stroke-miterlimit:10"></rect><rect x="199.99" y="149.95" width="6.59" height="8.24" style="fill:none;stroke:#000;stroke-linecap:round;stroke-miterlimit:10"></rect><rect x="189.28" y="170.54" width="6.59" height="8.24" style="fill:none;stroke:#000;stroke-linecap:round;stroke-miterlimit:10"></rect><rect x="199.99" y="170.54" width="6.59" height="8.24" style="fill:none;stroke:#000;stroke-linecap:round;stroke-miterlimit:10"></rect><rect x="189.28" y="191.13" width="6.59" height="8.24" style="fill:none;stroke:#000;stroke-linecap:round;stroke-miterlimit:10"></rect><rect x="199.99" y="191.13" width="6.59" height="8.24" style="fill:none;stroke:#000;stroke-linecap:round;stroke-miterlimit:10"></rect><rect x="189.28" y="211.72" width="6.59" height="8.24" style="fill:none;stroke:#000;stroke-linecap:round;stroke-miterlimit:10"></rect><rect x="199.99" y="211.72" width="6.59" height="8.24" style="fill:none;stroke:#000;stroke-linecap:round;stroke-miterlimit:10"></rect><rect x="189.28" y="232.31" width="6.59" height="8.24" style="fill:none;stroke:#000;stroke-linecap:round;stroke-miterlimit:10"></rect><rect x="199.99" y="232.31" width="6.59" height="8.24" style="fill:none;stroke:#000;stroke-linecap:round;stroke-miterlimit:10"></rect><rect x="189.28" y="252.9" width="6.59" height="8.24" style="fill:none;stroke:#000;stroke-linecap:round;stroke-miterlimit:10"></rect><rect x="199.99" y="252.9" width="6.59" height="8.24" style="fill:none;stroke:#000;stroke-linecap:round;stroke-miterlimit:10"></rect><rect x="213.52" y="149.95" width="6.59" height="8.24" style="fill:none;stroke:#000;stroke-linecap:round;stroke-miterlimit:10"></rect><rect x="224.23" y="149.95" width="6.59" height="8.24" style="fill:none;stroke:#000;stroke-linecap:round;stroke-miterlimit:10"></rect><rect x="213.52" y="170.54" width="6.59" height="8.24" style="fill:none;stroke:#000;stroke-linecap:round;stroke-miterlimit:10"></rect><rect x="224.23" y="170.54" width="6.59" height="8.24" style="fill:none;stroke:#000;stroke-linecap:round;stroke-miterlimit:10"></rect><rect x="213.52" y="191.13" width="6.59" height="8.24" style="fill:none;stroke:#000;stroke-linecap:round;stroke-miterlimit:10"></rect><rect x="224.23" y="191.13" width="6.59" height="8.24" style="fill:none;stroke:#000;stroke-linecap:round;stroke-miterlimit:10"></rect><rect x="213.52" y="211.72" width="6.59" height="8.24" style="fill:none;stroke:#000;stroke-linecap:round;stroke-miterlimit:10"></rect><rect x="224.23" y="211.72" width="6.59" height="8.24" style="fill:none;stroke:#000;stroke-linecap:round;stroke-miterlimit:10"></rect><rect x="213.52" y="232.31" width="6.59" height="8.24" style="fill:none;stroke:#000;stroke-linecap:round;stroke-miterlimit:10"></rect><rect x="224.23" y="232.31" width="6.59" height="8.24" style="fill:none;stroke:#000;stroke-linecap:round;stroke-miterlimit:10"></rect><rect x="213.52" y="252.9" width="6.59" height="8.24" style="fill:none;stroke:#000;stroke-linecap:round;stroke-miterlimit:10"></rect><rect x="224.23" y="252.9" width="6.59" height="8.24" style="fill:none;stroke:#000;stroke-linecap:round;stroke-miterlimit:10"></rect><rect x="31.41" y="88.17" width="6.59" height="8.24" style="fill:none;stroke:#000;stroke-linecap:round;stroke-miterlimit:10"></rect><rect x="42.11" y="88.17" width="6.59" height="8.24" style="fill:none;stroke:#000;stroke-linecap:round;stroke-miterlimit:10"></rect><rect x="31.41" y="108.76" width="6.59" height="8.24" style="fill:none;stroke:#000;stroke-linecap:round;stroke-miterlimit:10"></rect><rect x="42.11" y="108.76" width="6.59" height="8.24" style="fill:none;stroke:#000;stroke-linecap:round;stroke-miterlimit:10"></rect><rect x="31.41" y="129.35" width="6.59" height="8.24" style="fill:none;stroke:#000;stroke-linecap:round;stroke-miterlimit:10"></rect><rect x="42.11" y="129.35" width="6.59" height="8.24" style="fill:none;stroke:#000;stroke-linecap:round;stroke-miterlimit:10"></rect><rect x="31.41" y="149.95" width="6.59" height="8.24" style="fill:none;stroke:#000;stroke-linecap:round;stroke-miterlimit:10"></rect><rect x="42.11" y="149.95" width="6.59" height="8.24" style="fill:none;stroke:#000;stroke-linecap:round;stroke-miterlimit:10"></rect><rect x="31.41" y="170.54" width="6.59" height="8.24" style="fill:none;stroke:#000;stroke-linecap:round;stroke-miterlimit:10"></rect><rect x="42.11" y="170.54" width="6.59" height="8.24" style="fill:none;stroke:#000;stroke-linecap:round;stroke-miterlimit:10"></rect><rect x="31.41" y="191.13" width="6.59" height="8.24" style="fill:none;stroke:#000;stroke-linecap:round;stroke-miterlimit:10"></rect><rect x="42.11" y="191.13" width="6.59" height="8.24" style="fill:none;stroke:#000;stroke-linecap:round;stroke-miterlimit:10"></rect><rect x="31.41" y="211.72" width="6.59" height="8.24" style="fill:none;stroke:#000;stroke-linecap:round;stroke-miterlimit:10"></rect><rect x="42.11" y="211.72" width="6.59" height="8.24" style="fill:none;stroke:#000;stroke-linecap:round;stroke-miterlimit:10"></rect><rect x="31.41" y="232.31" width="6.59" height="8.24" style="fill:none;stroke:#000;stroke-linecap:round;stroke-miterlimit:10"></rect><rect x="42.11" y="232.31" width="6.59" height="8.24" style="fill:none;stroke:#000;stroke-linecap:round;stroke-miterlimit:10"></rect><rect x="31.41" y="252.9" width="6.59" height="8.24" style="fill:none;stroke:#000;stroke-linecap:round;stroke-miterlimit:10"></rect><rect x="42.11" y="252.9" width="6.59" height="8.24" style="fill:none;stroke:#000;stroke-linecap:round;stroke-miterlimit:10"></rect><rect x="469.5" y="252.9" width="6.59" height="8.24" style="fill:none;stroke:#000;stroke-linecap:round;stroke-miterlimit:10"></rect><polyline points="89.17 86.16 67.04 86.16 55.03 101.34 55.03 256.26" style="fill:none;stroke:#000;stroke-linecap:round;stroke-miterlimit:10"></polyline><line x1="72.77" y1="105.13" x2="59.45" y2="105.13" style="fill:none;stroke:#000;stroke-linecap:round;stroke-miterlimit:10"></line><line x1="89.17" y1="105.13" x2="82.29" y2="105.13" style="fill:none;stroke:#000;stroke-linecap:round;stroke-miterlimit:10"></line><line x1="89.17" y1="122.84" x2="59.45" y2="122.84" style="fill:none;stroke:#000;stroke-linecap:round;stroke-miterlimit:10"></line><line x1="89.17" y1="140.54" x2="59.45" y2="140.54" style="fill:none;stroke:#000;stroke-linecap:round;stroke-miterlimit:10"></line><line x1="89.17" y1="158.25" x2="59.45" y2="158.25" style="fill:none;stroke:#000;stroke-linecap:round;stroke-miterlimit:10"></line><line x1="78.93" y1="175.95" x2="59.45" y2="175.95" style="fill:none;stroke:#000;stroke-linecap:round;stroke-miterlimit:10"></line><line x1="89.17" y1="175.95" x2="83.97" y2="175.95" style="fill:none;stroke:#000;stroke-linecap:round;stroke-miterlimit:10"></line><line x1="89.17" y1="193.66" x2="59.45" y2="193.66" style="fill:none;stroke:#000;stroke-linecap:round;stroke-miterlimit:10"></line><line x1="75.01" y1="211.36" x2="59.45" y2="211.36" style="fill:none;stroke:#000;stroke-linecap:round;stroke-miterlimit:10"></line><line x1="89.17" y1="211.36" x2="82.29" y2="211.36" style="fill:none;stroke:#000;stroke-linecap:round;stroke-miterlimit:10"></line><line x1="89.17" y1="229.07" x2="59.45" y2="229.07" style="fill:none;stroke:#000;stroke-linecap:round;stroke-miterlimit:10"></line><line x1="89.17" y1="246.78" x2="59.45" y2="246.78" style="fill:none;stroke:#000;stroke-linecap:round;stroke-miterlimit:10"></line><line x1="428.74" y1="79.2" x2="479.33" y2="79.2" style="fill:none;stroke:#000;stroke-linecap:round;stroke-miterlimit:10"></line><polyline points="374.99 110.14 374.99 106.39 384.48 106.39 384.48 100.7 399.02 100.7 399.02 109.56" style="fill:none;stroke:#000;stroke-linecap:round;stroke-miterlimit:10"></polyline></g></g><g id="freepik--Screen--inject-385"><polygon points="242.62 72.11 324.25 72.11 324.25 190.24 324.25 200.88 328.08 209.25 315.65 200.88 242.62 200.88 242.62 72.11" style="fill:#263238;stroke:#263238;stroke-miterlimit:10"></polygon><polygon points="246.67 68.28 328.3 68.28 328.3 186.41 328.3 197.05 328.3 209.25 319.7 197.05 246.67 197.05 246.67 68.28" style="fill:#fff;stroke:#263238;stroke-miterlimit:10"></polygon><rect x="246.67" y="68.28" width="81.63" height="8.41" style="fill:#000000;stroke:#263238;stroke-miterlimit:10"></rect><path d="M311.87,72.6a1.76,1.76,0,1,0-1.75,1.76A1.75,1.75,0,0,0,311.87,72.6Z" style="fill:#263238;stroke:#263238;stroke-miterlimit:10"></path><path d="M318.65,72.6a1.76,1.76,0,1,0-1.76,1.76A1.75,1.75,0,0,0,318.65,72.6Z" style="fill:#fff;stroke:#263238;stroke-miterlimit:10"></path><path d="M325.43,72.6a1.76,1.76,0,1,0-1.76,1.76A1.75,1.75,0,0,0,325.43,72.6Z" style="fill:#fff;stroke:#263238;stroke-miterlimit:10"></path><polygon points="303.19 150.98 271.28 150.98 267.29 102.86 307.18 102.86 303.19 150.98" style="fill:#000000;stroke:#263238;stroke-miterlimit:10"></polygon><polygon points="304.34 137.08 305.75 120.1 268.72 120.1 270.12 137.08 304.34 137.08" style="fill:#fff;stroke:#263238;stroke-miterlimit:10"></polygon><rect x="263.94" y="98.74" width="47.09" height="6.95" style="fill:#fff;stroke:#263238;stroke-miterlimit:10"></rect><rect x="268.06" y="94.1" width="38.86" height="4.89" style="fill:#fff;stroke:#263238;stroke-miterlimit:10"></rect><rect x="263.81" y="158.7" width="47.35" height="18.01" rx="3.52" style="fill:#263238;stroke:#263238;stroke-miterlimit:10"></rect><path d="M275.38,172.05a2.87,2.87,0,0,1-1.57-.37,2,2,0,0,1-.84-1.05,4.94,4.94,0,0,1-.25-1.63v-3.46a4.78,4.78,0,0,1,.25-1.61,1.94,1.94,0,0,1,.84-1,3.63,3.63,0,0,1,3.15,0,1.94,1.94,0,0,1,.84,1,4.54,4.54,0,0,1,.25,1.61V169a4.56,4.56,0,0,1-.25,1.6,2.07,2.07,0,0,1-.84,1.06A3,3,0,0,1,275.38,172.05Zm0-1.25a.9.9,0,0,0,.62-.18,1,1,0,0,0,.27-.51,3,3,0,0,0,.07-.69v-4.27a3,3,0,0,0-.07-.7A.94.94,0,0,0,276,164a1.2,1.2,0,0,0-1.23,0,.82.82,0,0,0-.27.49,3,3,0,0,0-.07.7v4.27a3.69,3.69,0,0,0,.06.69.87.87,0,0,0,.27.51A.92.92,0,0,0,275.38,170.8Z" style="fill:#fff"></path><path d="M279.3,171.92v-9.27h2.22a4.9,4.9,0,0,1,1.59.23,1.83,1.83,0,0,1,1,.76,2.67,2.67,0,0,1,.34,1.46,4.4,4.4,0,0,1-.11,1,1.83,1.83,0,0,1-.34.76,1.73,1.73,0,0,1-.68.49l1.29,4.56h-1.7l-1.12-4.24H281v4.24Zm1.7-5.31h.52a1.93,1.93,0,0,0,.79-.14.84.84,0,0,0,.41-.46,2.08,2.08,0,0,0,.13-.81,1.75,1.75,0,0,0-.26-1,1.16,1.16,0,0,0-1-.35H281Z" style="fill:#fff"></path><path d="M285.7,171.92v-9.27h2.18a4.19,4.19,0,0,1,1.77.31,1.83,1.83,0,0,1,.91.95,4.45,4.45,0,0,1,.26,1.63v3.38a4.78,4.78,0,0,1-.26,1.68,1.88,1.88,0,0,1-.9,1,3.8,3.8,0,0,1-1.71.32Zm1.69-1.18h.52a1.37,1.37,0,0,0,.83-.2.92.92,0,0,0,.31-.6,6.7,6.7,0,0,0,.06-1v-3.55a4.33,4.33,0,0,0-.08-.9.8.8,0,0,0-.33-.5,1.54,1.54,0,0,0-.82-.17h-.49Z" style="fill:#fff"></path><path d="M292.07,171.92v-9.27H296v1.19h-2.2v2.67h1.73v1.18h-1.73v3.06H296v1.17Z" style="fill:#fff"></path><path d="M297,171.92v-9.27h2.22a4.84,4.84,0,0,1,1.58.23,1.85,1.85,0,0,1,1,.76,2.77,2.77,0,0,1,.33,1.46,4.43,4.43,0,0,1-.1,1,1.84,1.84,0,0,1-.35.76,1.6,1.6,0,0,1-.68.49l1.29,4.56h-1.69l-1.12-4.24h-.78v4.24Zm1.69-5.31h.53a1.84,1.84,0,0,0,.78-.14.86.86,0,0,0,.42-.46,2.31,2.31,0,0,0,.12-.81,1.75,1.75,0,0,0-.25-1,1.16,1.16,0,0,0-1-.35h-.62Z" style="fill:#fff"></path><line x1="283.99" y1="45.48" x2="283.99" y2="60.9" style="fill:none;stroke:#263238;stroke-linecap:round;stroke-linejoin:round"></line><line x1="344.36" y1="54.87" x2="333.63" y2="64.93" style="fill:none;stroke:#263238;stroke-linecap:round;stroke-linejoin:round"></line><line x1="234.35" y1="54.87" x2="245.08" y2="64.93" style="fill:none;stroke:#263238;stroke-linecap:round;stroke-linejoin:round"></line><line x1="223.62" y1="107.86" x2="237.03" y2="107.86" style="fill:none;stroke:#263238;stroke-linecap:round;stroke-linejoin:round"></line><line x1="337.65" y1="107.86" x2="351.07" y2="107.86" style="fill:none;stroke:#263238;stroke-linecap:round;stroke-linejoin:round"></line></g><g id="freepik--Character--inject-385"><path d="M323,297.82s-2-1.47-2.59-.65-.11,1.84,1.05,3,5.23,4.31,6.51,4.22,1.49-1.56,1.49-1.56Z" style="fill:#fff;stroke:#263238;stroke-linecap:round;stroke-linejoin:round"></path><path d="M342,293.32s-4.79-.55-6.69,0-7.47,7.34-7.47,7.34-3.87-2.38-4.9-2.84-2.1.09-1.32,1.19,6.09,5,7.57,5.32,13.56-4.5,13.56-4.5Z" style="fill:#fff;stroke:#263238;stroke-linecap:round;stroke-linejoin:round"></path><path d="M332.83,295.16s-4.19.64-5.29.73-3.16-1.1-3,.09a2.5,2.5,0,0,0,2.58,2.2l2.76.19Z" style="fill:#fff;stroke:#263238;stroke-linecap:round;stroke-linejoin:round"></path><polygon points="343.46 291.86 341.26 292.96 343.31 302.04 346.34 300.69 343.46 291.86" style="fill:#fff;stroke:#263238;stroke-linecap:round;stroke-linejoin:round"></polygon><polygon points="369.51 278.54 343.46 291.86 346.78 302.78 372.28 296.66 369.51 278.54" style="fill:#000000;stroke:#263238;stroke-linecap:round;stroke-linejoin:round"></polygon><path d="M375,221.1A252.31,252.31,0,0,0,368.8,263c-1.06,21.2-.18,53.18-.18,53.18l8.93-.55s-2.71-40.2-1.56-59.39,3.48-36.92,3.48-36.92A9.47,9.47,0,0,0,375,221.1Z" style="fill:#000000;stroke:#263238;stroke-linecap:round;stroke-linejoin:round"></path><path d="M382,434.72l-10.2,7.75s-4.65,2.61-4.49,3.75-.88.57.16,1.14,5.38.68,5.38.68h28.29l-1.29-11.25-13.27-4.43Z" style="fill:#fff;stroke:#263238;stroke-linecap:round;stroke-linejoin:round"></path><path d="M418.65,311.41l-7.49,62s3.36,15.38,2.66,19.62-7.45,43-7.45,43a49.64,49.64,0,0,1,.26,5.8,14.41,14.41,0,0,0-.13,2.23s-13.16-10.26-15.6-9.81a44.64,44.64,0,0,0-6.37,2L382,434.72a8.08,8.08,0,0,1-.4-4c.35-2.23,3-6.92,3-8s-9.31-43.71-9.85-45.94-.48-10.7-.23-15.16S372.73,307,372.73,307l47.18-2.27Z" style="fill:#263238;stroke:#263238;stroke-linecap:round;stroke-linejoin:round"></path><path d="M385.27,436.22l-8.82,6s-7.17,2.28-7.49,2.73.1,2.27.46,2.73,36.38.22,36.83.11.25-3.72.25-3.72-14.08-10.71-16-10.6S385.27,436.22,385.27,436.22Z" style="fill:#fff;stroke:#263238;stroke-linecap:round;stroke-linejoin:round"></path><path d="M375,221.1s-2.68,13.71-3.6,25.77,1.26,61.23,1.26,61.23l7,.18s-4.34-35.82-3.55-50.81,5.15-32,5.3-32.89S381,217.27,375,221.1Z" style="fill:#fff;stroke:#263238;stroke-linecap:round;stroke-linejoin:round"></path><path d="M392.2,205.57s17.93,15.46,20,21.67,3.28,46.13,3.28,46.13L424.08,314s-18.91,6.39-30.41,6.58a93,93,0,0,1-18.52-1.28s-3.26-48.43-1.53-63.05,5.41-34.36,5.54-35.64S383.64,210.5,392.2,205.57Z" style="fill:#000000;stroke:#263238;stroke-linecap:round;stroke-linejoin:round"></path><path d="M379.52,296.64s7,2.46,18.19.62l.21,3.06a33.09,33.09,0,0,1-7.77.82,75.64,75.64,0,0,1-10.63-1" style="fill:#000000;stroke:#263238;stroke-linecap:round;stroke-linejoin:round"></path><polygon points="375.41 215.29 370.44 217.81 369.9 226.04 372.98 221.47 378.26 224.94 375.41 215.29" style="fill:#fff;stroke:#263238;stroke-linecap:round;stroke-linejoin:round"></polygon><path d="M347.56,179.21s1.84,8.64,2.05,9.66,3.06,3.44,3.06,3.44.35,10.08,1,10.5,3.69,0,3.69,0,5.52,9.82,6.52,10.84,6.56-1.74,7.71-2.45l1.16-.72,4.19,7.6L390,202.64l-5-10.49s2.51-11.85,1.31-16.39-7.8-12.4-9.73-13.53-20.7,4.71-23.24,5.65a15.67,15.67,0,0,0-3.68,1.79s3.55-4.93.95-4.24-3.89,3.93-3.89,3.93.06-4.75-1.81-1.81.17,8.39.17,8.39-3-1.09-1.69.67S347.56,179.21,347.56,179.21Z" style="fill:#fff;stroke:#263238;stroke-linecap:round;stroke-linejoin:round"></path><path d="M343.36,176.61c-1.28-1.76,1.69-.67,1.69-.67s-2-5.45-.17-8.39,1.81,1.81,1.81,1.81,1.29-3.24,3.89-3.93-.95,4.24-.95,4.24a15.7,15.7,0,0,1,3.67-1.79c2.55-.94,14.37-9.25,22.7-6.54,7.32,2.39,9.08,9.88,10.28,14.42S385,192.15,385,192.15l.71,1.46a5.13,5.13,0,0,1-1.36,1.67c-1.06.57-4.74-.8-4.74-.8s2.35-3.14,2.62-5-.41-5.72-2.89-6.37-4.78,3.42-5,4.37-.6.89-2.07.73-1.67-5.51-1.75-5.89-6.23-1.09-7.57-1.92.25-3.19.44-4.8-1.94-1.79-4.51-1-11.32,4.61-11.32,4.61S344.64,178.37,343.36,176.61Z" style="fill:#263238;stroke:#263238;stroke-linecap:round;stroke-linejoin:round"></path><path d="M356.79,193.2c.42.8,1.07,1.3,1.45,1.11s.34-1-.08-1.77-1.07-1.3-1.45-1.11S356.37,192.4,356.79,193.2Z" style="fill:#263238"></path><path d="M357.79,187.31s-2.21-1.22-5,1.34" style="fill:none;stroke:#263238;stroke-linecap:round;stroke-linejoin:round"></path><path d="M365.65,201a5.08,5.08,0,0,1-3.58,4.13" style="fill:none;stroke:#263238;stroke-linecap:round;stroke-linejoin:round"></path><path d="M354.37,193.33c-.95-2.34-.24-4.78,1.58-5.45s4.06.7,5,3.05.24,4.78-1.58,5.45S355.31,195.68,354.37,193.33Z" style="fill:none;stroke:#263238;stroke-linecap:round;stroke-linejoin:round"></path><line x1="360.96" y1="190.93" x2="374.64" y2="184.81" style="fill:none;stroke:#263238;stroke-linecap:round;stroke-linejoin:round"></line><polygon points="372.71 210.47 376.66 207.46 375.41 215.29 372.71 210.47" style="fill:#263238;stroke:#263238;stroke-linecap:round;stroke-linejoin:round"></polygon><polygon points="390.13 200.27 373 217.81 378.26 224.94 393.68 205.94 390.13 200.27" style="fill:#fff;stroke:#263238;stroke-linecap:round;stroke-linejoin:round"></polygon><path d="M329.65,216.67a.8.8,0,0,1,1.05.39l8.81,18.06-2.43-1-7.76-16.45a.75.75,0,0,1,.33-1Z" style="fill:#263238;stroke:#263238;stroke-linecap:round;stroke-linejoin:round"></path><path d="M337.22,229.19l2.2,1.12a18.42,18.42,0,0,1,4.14-.3,3.88,3.88,0,0,1,2.51,3c.05,1.11,2.13,9.64,2.13,9.64l4.76,5.2L345.63,253s-5.18-4.67-5.41-4.82a19.26,19.26,0,0,1-3.83-2.6c-.78-1-1.94-6.9-1.94-6.9s-3.58-7.12-2.93-9.05,2.85-1.11,2.85-1.11l2.71,5.59,5.73,2.35s.14-1.78-.31-2-3.23-.89-3.23-.89Z" style="fill:#fff;stroke:#263238;stroke-linecap:round;stroke-linejoin:round"></path><polygon points="354.82 248.52 350.62 244.5 344.22 252.72 347.82 255.65 354.82 248.52" style="fill:#fff;stroke:#263238;stroke-linecap:round;stroke-linejoin:round"></polygon><path d="M404.12,248.38s-4.67,17.32-8.6,27.55-7.78,14.08-9.44,13.89-40.22-33.08-40.22-33.08l8.35-9.5,21.49,14.62s7.39-35.09,7.54-35.82,1.46-4.2,6.91-4.94a15.43,15.43,0,0,1,8.82,1.1" style="fill:#000000;stroke:#263238;stroke-linecap:round;stroke-linejoin:round"></path></g><g id="freepik--Car--inject-385"><path d="M88.4,355.28v55.66H306V355.28h40.9v81.33A11.43,11.43,0,0,1,335.43,448H317.38A11.42,11.42,0,0,1,306,436.61v-3.75H286.14l-9.27-5.9H118.33l-11.8,6.74H88.4v2.91A11.43,11.43,0,0,1,77,448h-18A11.42,11.42,0,0,1,47.5,436.61V355.28Z" style="fill:#263238;stroke:#263238;stroke-linecap:round;stroke-miterlimit:10"></path><path d="M55.93,315.23c1.69-3.38,15.18-17.29,15.18-17.29S96.77,249,101.05,241c8.11-15.13,21.5-12.65,21.5-12.65l75.05-3.79.42.12.42-.12,75.05,3.79S287.23,227,295,241c4.37,7.92,29.93,56.92,29.93,56.92s13.49,13.91,15.18,17.29,8.43,16,8.43,18.55c0,2.25-1.67,40.6-9.18,69.22a20.06,20.06,0,0,1-12.77,13.74A24.6,24.6,0,0,1,322,418.1H267.17l-13.92-24a29.31,29.31,0,0,0-19-6.75H161.76a29.34,29.34,0,0,0-19,6.75l-13.92,24H74.06a24.6,24.6,0,0,1-4.61-1.36A20.06,20.06,0,0,1,56.68,403c-7.51-28.62-9.18-67-9.18-69.22C47.5,331.25,54.25,318.6,55.93,315.23Z" style="fill:#dedede;stroke:#adadad;stroke-miterlimit:10"></path><path d="M69.45,416.74A20.06,20.06,0,0,1,56.68,403c-4.1-15.62-6.45-34.12-7.75-48.09,12.64,5.61,44.22,18.54,72.36,21.37,36.18,3.64,112.14,5.33,151.11,0s74.46-21,74.46-21l.17.52c-1.31,13.85-3.66,31.91-7.67,47.2a20.06,20.06,0,0,1-12.77,13.74A24.6,24.6,0,0,1,322,418.1H267.17l-13.92-24a29.31,29.31,0,0,0-19-6.75H161.76a29.34,29.34,0,0,0-19,6.75l-13.92,24H74.06A24.6,24.6,0,0,1,69.45,416.74Z" style="fill:#bfbfbf;stroke:#adadad;stroke-miterlimit:10"></path><path d="M267.17,418.1l2.95,6.75H126.77l2.1-6.75,13.92-24s5.48-6.32,19-6.75,72.52,0,72.52,0a28.08,28.08,0,0,1,19,6.75Z" style="fill:#787878;stroke:#545454;stroke-linecap:round;stroke-miterlimit:10"></path><path d="M254.94,338s-11.38,20.24-14.76,23.61-7.16,3.38-11.8,3.8-68.3,0-68.3,0-5.06-.84-7.59-4.64-11-22.77-11-22.77Z" style="fill:#263238;stroke:#adadad;stroke-linecap:round;stroke-miterlimit:10"></path><path d="M243.65,340.74s-9.12,16.21-11.82,18.91-5.74,2.7-9.46,3-54.69,0-54.69,0-4.06-.68-6.08-3.72-8.78-18.23-8.78-18.23Z" style="fill:#545454;stroke:#545454;stroke-linecap:round;stroke-miterlimit:10"></path><path d="M150.67,410.94l2.52-7a10.93,10.93,0,0,1,10.5-7.21l68.48.68a11,11,0,0,1,10.33,8l1.7,5.49Z" style="fill:#263238"></path><polygon points="245.25 414.31 247.35 421.05 147 421.05 149.45 414.31 245.25 414.31" style="fill:#263238"></polygon><path d="M71.11,297.94S69,281.5,65.21,281.5s-20.66,4.63-21.08,8,3.37,7.16,6.74,8,10.54,1.68,10.54,1.68l1.69,6.33Z" style="fill:#263238;stroke:#263238;stroke-linecap:round;stroke-miterlimit:10"></path><path d="M324.93,297.94s2.11-16.44,5.9-16.44,20.66,4.63,21.09,8-3.38,7.16-6.75,8-10.54,1.68-10.54,1.68l-1.69,6.33Z" style="fill:#263238;stroke:#263238;stroke-linecap:round;stroke-miterlimit:10"></path><path d="M83.76,288.24c65.35-6.32,229.79,0,229.79,0-3.28-6.44-7.47-13.9-11.67-21.12-3.05-5.23-6.11-10.33-8.84-14.83-5.6-9.23-9.85-15.91-9.85-15.91-96.55-9.7-170.76-.42-170.76-.42Z" style="fill:#fff;stroke:#adadad;stroke-linecap:round;stroke-miterlimit:10"></path><path d="M264.56,243.25c2.6,6.4,27.83,19.23,37.32,23.87-3.05-5.23-6.11-10.33-8.84-14.83C282.3,246.91,262.19,237.43,264.56,243.25Z" style="fill:#263238"></path><path d="M276,335.89s-7.59,8-10.12,22.76c0,0,35.84-1.68,49.76-7.16s15.6-5.91,16-8.44-.85-20.66-6.33-23.61-11.38-2.11-16.86,2.11-12.23,10.54-16,11.81S276,335.89,276,335.89Z" style="fill:#fff;stroke:#adadad;stroke-linecap:round;stroke-miterlimit:10"></path><path d="M300.58,337.11a9.88,9.88,0,1,0,9.88-9.88A9.88,9.88,0,0,0,300.58,337.11Z" style="fill:#fff;stroke:#adadad;stroke-linecap:round;stroke-miterlimit:10"></path><path d="M282.93,349.46a4.59,4.59,0,1,0,4.59-4.59A4.59,4.59,0,0,0,282.93,349.46Z" style="fill:#fff;stroke:#adadad;stroke-linecap:round;stroke-miterlimit:10"></path><path d="M118.83,335.89s7.59,8,10.12,22.76c0,0-35.84-1.68-49.75-7.16s-15.6-5.91-16-8.44.84-20.66,6.32-23.61,11.38-2.11,16.86,2.11,12.23,10.54,16,11.81S118.83,335.89,118.83,335.89Z" style="fill:#fff;stroke:#adadad;stroke-linecap:round;stroke-miterlimit:10"></path><circle cx="82.12" cy="337.11" r="9.88" style="fill:#fff;stroke:#adadad;stroke-linecap:round;stroke-miterlimit:10"></circle><path d="M109.65,349.46a4.59,4.59,0,1,1-4.59-4.59A4.59,4.59,0,0,1,109.65,349.46Z" style="fill:#fff;stroke:#adadad;stroke-linecap:round;stroke-miterlimit:10"></path><path d="M73.64,373.41s39.21,7.59,40.9,8.85,5.06,8.44,5.06,8.44l-8-2.11s-18.55.84-24.88-2.11S73.64,373.41,73.64,373.41Z" style="fill:#263238;stroke:#adadad;stroke-linecap:round;stroke-miterlimit:10"></path><path d="M319.45,373.41s-39.21,7.59-40.9,8.85-5.06,8.44-5.06,8.44l8-2.11s18.56.84,24.88-2.11S319.45,373.41,319.45,373.41Z" style="fill:#263238;stroke:#adadad;stroke-linecap:round;stroke-miterlimit:10"></path><polyline points="122.78 342.38 133.26 338.88 141.52 338.88" style="fill:none;stroke:#adadad;stroke-linecap:round;stroke-miterlimit:10"></polyline><polyline points="271.38 341.88 264.39 337.89 254.94 337.99" style="fill:none;stroke:#adadad;stroke-linecap:round;stroke-miterlimit:10"></polyline><path d="M93.11,295.22C92,294.61,91,294,89.88,293.51" style="fill:none;stroke:#adadad;stroke-linecap:round;stroke-miterlimit:10"></path><path d="M139.52,355.07c-6.59-14.5-21.68-43.34-42.76-57.57" style="fill:none;stroke:#adadad;stroke-linecap:round;stroke-miterlimit:10"></path><path d="M143.23,363.82s-.52-1.39-1.53-3.77" style="fill:none;stroke:#adadad;stroke-linecap:round;stroke-miterlimit:10"></path><path d="M299.35,297.49c1.75-1.06,3.56-2.06,5.43-3" style="fill:none;stroke:#adadad;stroke-linecap:round;stroke-miterlimit:10"></path><path d="M257.12,355.39c4.32-12.9,15.56-39.6,38.51-55.49" style="fill:none;stroke:#adadad;stroke-linecap:round;stroke-miterlimit:10"></path><path d="M254.92,362.82s.31-1.34,1-3.67" style="fill:none;stroke:#adadad;stroke-linecap:round;stroke-miterlimit:10"></path><path d="M316.75,317.94s4.49-11,4.49-17.45" style="fill:#fff;stroke:#adadad;stroke-linecap:round;stroke-miterlimit:10"></path><path d="M76.91,317.44a87.6,87.6,0,0,1-2.49-14" style="fill:#fff;stroke:#adadad;stroke-linecap:round;stroke-miterlimit:10"></path><path d="M61.45,364.31l3,38.9,55.34,2.49s9.48-11.47,10-16.45-6.49-12.47-8.48-13-36.9-7.48-36.9-7.48" style="fill:none;stroke:#adadad;stroke-linecap:round;stroke-miterlimit:10"></path><path d="M332.23,364.31l-3,38.9-55.35,2.49s-9.47-11.47-10-16.45,6.48-12.47,8.48-13,36.9-7.48,36.9-7.48" style="fill:none;stroke:#adadad;stroke-linecap:round;stroke-miterlimit:10"></path><path d="M239.7,347.39,199,350.65a33.43,33.43,0,0,1-5.2,0l-37.5-2.91" style="fill:none;stroke:#292929;stroke-linecap:round;stroke-miterlimit:10"></path><path d="M237,351.65l-38,3a33.43,33.43,0,0,1-5.2,0l-36.18-2.81" style="fill:none;stroke:#292929;stroke-linecap:round;stroke-miterlimit:10"></path><path d="M234.3,355.91,199,358.73a33.43,33.43,0,0,1-5.2,0l-34.35-2.67" style="fill:none;stroke:#292929;stroke-linecap:round;stroke-miterlimit:10"></path><path d="M211,262.53c18.85,11.09,70.4,21,97,25.51-29.19-1-166-5.43-224.25.2l25.68-46.82C146.76,238.92,191.64,251.15,211,262.53Z" style="fill:#263238"></path><path d="M313.55,288.24s-164.44-6.32-229.79,0L112.43,236s74.21-9.28,170.76.42C283.19,236.38,303,267.58,313.55,288.24Z" style="fill:none;stroke:#adadad;stroke-linecap:round;stroke-miterlimit:10"></path></g><g id="freepik--Floor--inject-385"><line x1="486.41" y1="448.04" x2="9.17" y2="448.04" style="fill:none;stroke:#263238;stroke-miterlimit:10"></line></g></svg>
