<svg xmlns="http://www.w3.org/2000/svg" viewBox="0 0 500 500"><g id="freepik--Lines--inject-253"><path d="M117.84,366.61c23.64-15.22,50.32-31.49,74.66-45.6-23.67,15.22-50.32,31.51-74.66,45.6Z" style="fill:#263238"></path><path d="M57.14,448.43c45-28.26,95.92-59.35,141.63-86.5-45,28.27-95.93,59.35-141.63,86.5Z" style="fill:#263238"></path><path d="M181,412.51c18.37-12,37.21-23.51,56.28-34.37-18.37,12-37.21,23.51-56.28,34.37Z" style="fill:#263238"></path><path d="M91.27,399.9c18.37-12,37.21-23.51,56.28-34.37-18.37,12-37.21,23.51-56.28,34.37Z" style="fill:#263238"></path><path d="M135.53,412.51a347.6,347.6,0,0,1,32.29-19.72,353.32,353.32,0,0,1-32.29,19.72Z" style="fill:#263238"></path><path d="M232.13,407.76A352,352,0,0,1,264.42,388a350.25,350.25,0,0,1-32.29,19.72Z" style="fill:#263238"></path><path d="M189.78,338.07a353.48,353.48,0,0,1,32.3-19.72,349.08,349.08,0,0,1-32.3,19.72Z" style="fill:#263238"></path></g><g id="freepik--Clock--inject-253"><path d="M394.38,270.07s-2.15-5.95-6.4-18.09c-4-11.48-14.23-41.2-13.4-55.73,2.17-38.19,41.63-66.13,57.91-105.89,8.92-21.77,5.32-28.55,10.63-30.24s19.15,36.23.44,68.26c0,0,17.2-2.48,19.66,2.48s-8.05,15.27-16.88,19.19c0,0,21.21,6.65,22,14s-16.85,13.19-25,13.79c0,0,13.08,5.8,12.72,11.53-.54,8.82-19.91,8.81-19.91,8.81s8.43,4.29,7,8.42c-1.9,5.62-17.1,6.66-17.1,6.66S431,228.55,411.63,231c0,0,2.46,12.2-12.59,12.61,0,0-2.92,7-2.06,12.88S396.72,269.41,394.38,270.07Z" style="fill:#ebebeb"></path><path d="M392.52,253.26a8.45,8.45,0,0,1,.93-4.07c1.7-3.87,3-8.68-.92-12.82l0,.71c5-2.13,7.21-7.54,2.66-13.64a30,30,0,0,0-3.89-4.32l-.32,1.39c18.93,2.83,17.79-6,2.07-17.71l-.37,1.91c20,4.19,25.8.18,6.63-18.44l-.39,1.86a12.86,12.86,0,0,0,4.19-.43c8.51-2.28,6.73-11.9,4.06-20.45-1.89-6.16-1.6-12.44,1.26-17.05a30.72,30.72,0,0,1,11.22-10.59,44.3,44.3,0,0,1,6.94-3.34,39.16,39.16,0,0,0-7.18,2.88c-9.63,4.89-17.84,13.55-13.72,28.3,1.2,4.63,2.63,9.26,1.64,13.46-1.05,4-5,5.25-8.62,5.07l-2.45-.13,2,2c2.14,2,12.35,12.3,10.64,15-3,2.51-12.13.62-16.26-.18l-4.14-.89c3.66,2.8,14,9.87,14.79,14.76-.34,3.68-9.66,2.73-12.44,2.42l-2.19-.28c3.05,2.75,7,5.93,7.83,10.35.57,3.81-2.32,6.28-4.88,7.5,4.27,4,3.1,8.38,1.61,12.55a9,9,0,0,0-.71,4.22Z" style="fill:#c7c7c7"></path><path d="M413.64,182.09a68.35,68.35,0,0,1,5.47,5.92c1.34,1.79,2.94,3.73,3.27,6,.2,5.3-6.5,6.56-10.14,7.05l-1,.1a36.22,36.22,0,0,1,4.23,6.31c4.27,8.05-6.35,7.3-10.46,6.88l1.06,1.26c1.95,2.32,5.29,7.38,2.52,9.25-2.68,1.43-6.26,1.24-9.43,1.09l-.66,0c2.17,2.43,3.45,6.27,1.85,8.79a6.9,6.9,0,0,1-1.64,2c3.31-2.06,3.59-6.57.68-10.56l-.17.57c3.27.27,8.85,1,11-1.74,1.64-3.19-1.16-7.42-3.35-10.19l-.33,1.13a18.38,18.38,0,0,0,8.12-.64c6.21-2.23,1.77-9.44-1.83-13.9l-.23,1.1c4.11-.62,11.08-2.25,10.63-8.33-.82-4.42-6.43-9.24-9.54-12Z" style="fill:#c7c7c7"></path><path d="M379.85,212.8c-4-12.49-1.84-26.19,2.64-38.28,4.35-10.63,11.25-20,17.68-29.41,6.17-8.61,15.08-20.85,20.95-29.49,6.58-10,13.41-20.11,16.48-31.83-.59,6-2.74,11.89-5.21,17.44-5.06,11.08-11.75,21.3-18.55,31.34s-14,19.65-20.64,29.69a85.58,85.58,0,0,0-8.56,15.54c-4.43,11-6.88,23.19-4.79,35Z" style="fill:#fff"></path><path d="M418.88,227.31s14.07-38.9-23.39-58.81-60,15.64-60,15.64S366.29,215.64,418.88,227.31Z" style="fill:#000000"></path><path d="M418.87,227.31c-52.58-11.67-83.37-43.17-83.37-43.17S382.92,192.62,418.87,227.31Z" style="fill:#000000"></path><path d="M391.89,175.46h0a4.22,4.22,0,0,0,5.74-1.7l2.87-5.29a4.24,4.24,0,0,0-1.7-5.74h0a4.24,4.24,0,0,0-5.74,1.7l-2.87,5.29A4.24,4.24,0,0,0,391.89,175.46Z" style="fill:#000000"></path><path d="M391.89,175.46h0a4.22,4.22,0,0,0,5.74-1.7l2.87-5.29a4.24,4.24,0,0,0-1.7-5.74h0a4.24,4.24,0,0,0-5.74,1.7l-2.87,5.29A4.24,4.24,0,0,0,391.89,175.46Z" style="fill:#fff;opacity:0.4"></path><path d="M418.87,227.31c-52.58-11.67-83.37-43.17-83.37-43.17S382.92,192.62,418.87,227.31Z" style="opacity:0.2"></path><path d="M377.12,194.21H379a3.31,3.31,0,0,1,3.31,3.31v21.69a0,0,0,0,1,0,0h-8.47a0,0,0,0,1,0,0V197.52A3.31,3.31,0,0,1,377.12,194.21Z" transform="matrix(-0.88, -0.48, 0.48, -0.88, 611.72, 568.7)" style="fill:#000000"></path><path d="M377.12,194.21H379a3.31,3.31,0,0,1,3.31,3.31v21.69a0,0,0,0,1,0,0h-8.47a0,0,0,0,1,0,0V197.52A3.31,3.31,0,0,1,377.12,194.21Z" transform="matrix(-0.88, -0.48, 0.48, -0.88, 611.72, 568.7)" style="opacity:0.30000000000000004"></path><path d="M418.87,227.31c-35.95-34.69-83.37-43.17-83.37-43.17s22.54-35.56,60-15.64S418.87,227.31,418.87,227.31Z" style="fill:#000000"></path><path d="M418.87,227.31c-35.95-34.69-83.37-43.17-83.37-43.17s22.54-35.56,60-15.64S418.87,227.31,418.87,227.31Z" style="fill:#fff;opacity:0.4"></path><g style="opacity:0.30000000000000004"><path d="M386.57,164.66c-14.7,2.19-26.69,15.5-33.13,24.33-3.84-1.27-7.21-2.25-10-3,19.39-25.67,41.9-21.58,43-21.36Z" style="fill:#fff"></path><path d="M389.83,165.85a79.74,79.74,0,0,0-28.63,25.9c-1.19-.46-2.36-.88-3.5-1.29C371.92,171.27,389.83,165.85,389.83,165.85Z" style="fill:#fff"></path></g><path d="M418.87,227.3c-16-15.44-34.32-25.71-49.67-32.33,10.15,4.13,36.49,14,42.27,9,5-4.33.34-21.56-8.37-30.65C430.92,194,418.87,227.3,418.87,227.3Z" style="opacity:0.1"></path><path d="M218.61,335.91a98.21,98.21,0,0,0,123.12,65.24l31.9-9.7-63.52-185.9-20.63,6.23q-2.46.61-4.94,1.37A98.22,98.22,0,0,0,218.61,335.91Z" style="fill:#000000"></path><path d="M218.61,335.91a98.21,98.21,0,0,0,123.12,65.24l31.9-9.7-63.52-185.9-20.63,6.23q-2.46.61-4.94,1.37A98.22,98.22,0,0,0,218.61,335.91Z" style="opacity:0.2"></path><g style="opacity:0.05"><path d="M364,363.33l-78.54,38.41h0a98.11,98.11,0,0,1-27.91-13l98.65-48.25Z"></path><path d="M354.1,334.29,251.64,384.4q-3.09-2.43-6-5.12l106.1-51.89Z"></path></g><ellipse cx="337.38" cy="299.94" rx="91.04" ry="98.47" transform="translate(-85.12 140.94) rotate(-21.02)" style="fill:#000000"></ellipse><ellipse cx="344.13" cy="300.1" rx="84.62" ry="93.96" transform="translate(-84.73 143.37) rotate(-21.01)" style="opacity:0.1"></ellipse><ellipse cx="344.13" cy="300.1" rx="79.27" ry="88.02" transform="translate(-84.73 143.36) rotate(-21.01)" style="fill:#fff"></ellipse><path d="M413.46,261.32c-27.85,33-73.63,87.13-99.34,117A90.17,90.17,0,0,1,284,353.18l73.41-137.64C380.5,221.47,401.26,238,413.46,261.32Z" style="fill:#ebebeb;opacity:0.5"></path><path d="M421.36,281.68a94.83,94.83,0,0,1,3.13,28.8l-80.44,76.37a76.24,76.24,0,0,1-13.73-2.34C353.62,358.11,396.24,310,421.36,281.68Z" style="fill:#ebebeb;opacity:0.5"></path><path d="M322.16,224l2.33,7.82-.72.19-.71.21-2.34-7.82Z" style="fill:#263238"></path><path d="M296.14,249.19c-.34.37-.68.75-1,1.14l-5.56-5.78,1-1.14Z" style="fill:#263238"></path><path d="M280.64,280.22c-.11.52-.21,1-.31,1.57L273,279.6l.31-1.57Z" style="fill:#263238"></path><path d="M282.39,317.36c.08.27.16.53.25.79l-7.09,2-.48-1.58,7.09-2C282.24,316.83,282.32,317.1,282.39,317.36Z" style="fill:#263238"></path><path d="M301.4,349.69l-5,5.62-1.12-1.17,5-5.62Z" style="fill:#263238"></path><path d="M331.63,367.93l-1.52,7.75-1.48-.44,1.52-7.76C330.64,367.65,331.13,367.79,331.63,367.93Z" style="fill:#263238"></path><path d="M365.19,368l2.34,7.82-1.43.4-2.34-7.82.72-.2Z" style="fill:#263238"></path><path d="M398.69,355.64l-1,1.14L392.12,351c.34-.37.68-.75,1-1.13Z" style="fill:#263238"></path><path d="M415.22,320.6l-.3,1.57-7.3-2.19c.11-.52.21-1,.3-1.57Z" style="fill:#263238"></path><path d="M412.71,280.06l.47,1.58-7.09,2c-.08-.27-.15-.53-.23-.79l-.24-.79Z" style="fill:#263238"></path><path d="M393,246.06l-5,5.62c-.37-.4-.74-.78-1.13-1.17l5-5.62Z" style="fill:#263238"></path><path d="M359.63,225l-1.52,7.77c-.5-.17-1-.31-1.48-.45l1.52-7.76Z" style="fill:#263238"></path><polygon points="358.97 228.47 346.79 306.85 339.33 304.56 356.94 227.84 358.97 228.47" style="fill:#37474f"></polygon><polygon points="303.36 258.47 350.65 300.94 345.61 306.74 301.99 260.04 303.36 258.47" style="fill:#455a64"></polygon><path d="M346.6,299.41a2.67,2.67,0,0,1-1.66,3.42,2.78,2.78,0,0,1-3.29-2,2.66,2.66,0,0,1,1.66-3.42A2.78,2.78,0,0,1,346.6,299.41Z" style="fill:#c7c7c7"></path><path d="M345.17,297.36a3.32,3.32,0,0,1,1.56,4.06,2.57,2.57,0,0,1-3.65,1.41,3.32,3.32,0,0,1-1.56-4.06A2.57,2.57,0,0,1,345.17,297.36Z" style="fill:#000000"></path><polygon points="344.57 298.93 396.55 326.18 396.24 326.99 343.68 301.27 344.57 298.93" style="fill:#000000"></polygon><path d="M239.29,229.54h9.8a0,0,0,0,1,0,0V245.9a3.31,3.31,0,0,1-3.31,3.31H242.6a3.31,3.31,0,0,1-3.31-3.31V229.54A0,0,0,0,1,239.29,229.54Z" transform="translate(-93.92 290.49) rotate(-53.03)" style="fill:#000000"></path><path d="M239.29,229.54h9.8a0,0,0,0,1,0,0V245.9a3.31,3.31,0,0,1-3.31,3.31H242.6a3.31,3.31,0,0,1-3.31-3.31V229.54A0,0,0,0,1,239.29,229.54Z" transform="translate(-93.92 290.49) rotate(-53.03)" style="opacity:0.30000000000000004"></path><path d="M207.42,279s-33.53-34.19-3.66-73.16,70.69-12.38,70.69-12.38S250.93,244,207.42,279Z" style="fill:#000000"></path><path d="M207.42,279s-33.53-34.19-3.66-73.16,70.69-12.38,70.69-12.38S250.93,244,207.42,279Z" style="fill:#fff;opacity:0.4"></path><g style="opacity:0.30000000000000004"><path d="M222.45,265.65c-2.66,2.6-5.42,5.18-8.28,7.69-26.41-33.86-14.63-61-14.18-62a0,0,0,0,1,0,0C199.09,233.81,215.07,256.44,222.45,265.65Z" style="fill:#fff"></path><path d="M229.2,258.74c-1,1.12-2.11,2.23-3.2,3.36-.18-.22-.36-.45-.55-.67-21.21-25.84-23.27-53.4-23.27-53.4C208.63,234.72,222.46,251.72,229.2,258.74Z" style="fill:#fff"></path></g><path d="M274.46,193.51a278.83,278.83,0,0,1-37.86,57c14.11-19.22,24.72-43.16,21.71-52.06-1.47-4.37-7.14-12.49-31.73-10.62C251,178.2,274.46,193.51,274.46,193.51Z" style="opacity:0.1"></path><rect x="199.3" y="198.05" width="9.8" height="16.77" rx="4.57" transform="translate(-83.54 245.42) rotate(-53.03)" style="fill:#000000"></rect><rect x="199.3" y="198.05" width="9.8" height="16.77" rx="4.57" transform="translate(-83.54 245.42) rotate(-53.03)" style="fill:#fff;opacity:0.4"></rect><path d="M241.35,325.63s-1.79-6.56-5.59-19.85c-3.6-12.58-13.11-45-24.52-57.25-30-32.19-95.9-32.2-143.4-57-26-13.58-26.71-21.77-34.09-19.95s3.83,43.7,48.59,60.19c0,0-21.76,8.52-21,14.39s20.32,8.42,33.4,6.37c0,0-19.84,19-15.42,26s29.06,1.11,38.9-3.4c0,0-11,13.22-6.48,18,7,7.4,29.46-4.64,29.46-4.64s-6.69,9-2.11,11.77c6.24,3.75,24.63-4.77,24.63-4.77s5.27,16.44,29.54,6.55c0,0,5.91,12.24,23.69,3.25,0,0,8.41,4.32,11.65,10S238.15,326.51,241.35,325.63Z" style="fill:#ebebeb"></path><path d="M234.32,308.16c-.89-1.47-2.57-2.17-4-3-4.75-2.34-9.7-5.77-8.16-11.83l.57.61c-7.39,1.26-13.8-2.14-12.9-10.33a27.45,27.45,0,0,1,1.4-6.21l1.38,1c-19.94,14.24-25,5.78-15.14-14.26l1.81,1.44c-20.23,16.11-29.83,16.18-21-12.07l1.79,1.39a21.39,21.39,0,0,1-5.17,2.23c-11.52,3.27-16.38-6.27-19.43-15.44a22.24,22.24,0,0,0-13.72-14.19c-6.55-2.38-13.72-2.78-20.65-2.33a82.05,82.05,0,0,0-10.46,1.38,69.38,69.38,0,0,1,10.41-1.93c14.7-1.68,30.45.82,36.28,16.32,2,4.82,3.6,9.77,7.78,12.84,4.1,2.86,9.6,1.5,13.66-.91l2.75-1.63-1,3c-1,3.13-5.48,18.47-1.58,19.76,5.26.36,14.52-7,18.76-10.26l4.16-3.36c-2.23,4.73-9.15,17.36-6.55,22.14,3,3,13.17-3.6,16.17-5.59l2.34-1.61c-1.55,4.31-3.85,9.56-1.64,13.95,2.08,3.69,7.22,4.07,11.06,3.56-2.1,6.13,2.43,9.28,7.16,12,1.4.91,3,1.73,3.86,3.25Z" style="fill:#c7c7c7"></path><path d="M158.61,258.8a59.87,59.87,0,0,0-2.09,8.6c-.27,2.4-.73,5.1.5,7.27,3.57,4.77,12.26,1.72,16.84-.11l1.25-.54a30.73,30.73,0,0,0-.37,8.17c.82,9.72,12.61,2.47,17.08-.46l-.32,1.77c-.6,3.24-.83,9.76,3.73,9.67,4.14-.4,8.15-2.79,11.73-4.89l.74-.45c-.78,3.49.5,7.65,4.17,8.88a11.28,11.28,0,0,0,3.31.68c-5.32.26-8.89-3.54-8.39-8.84l.61.39c-3.6,2.27-9.59,6.34-14,5.28-4.21-1.78-4-7.24-3.45-11l1.2.79a29.46,29.46,0,0,1-9.88,4.48c-8.81,1.91-8.86-7.18-7.88-13.34l1.06.83c-5.21,2-14.48,4.91-18.33-.71-2.23-4.39.82-12.11,2.46-16.44Z" style="fill:#c7c7c7"></path><path d="M241.35,325.62c-3.2.89-9.54-4.59-12.79-10.29s-11.65-10-11.65-10c-17.78,9-23.69-3.25-23.69-3.25-24.27,9.89-29.54-6.55-29.54-6.55,10.43,9.89,29.53,2.07,29.53,2.07,11.51,11.79,23.64,4.27,23.64,4.27a59.33,59.33,0,0,0,7.88.6c3.37-.05-2.51-19.14-7.81-33.64-5-13.7-23.62-34.05-32.07-38.36l.08,0c10.28,4.74,19.27,10.52,26.3,18.06,11.42,12.24,20.94,44.68,24.53,57.25C239.56,319.07,241.35,325.62,241.35,325.62Z" style="opacity:0.1"></path><path d="M84.06,228.51c-19.59-6.13-38.26-20.06-46.49-39.31a47.94,47.94,0,0,1-3-10,4.59,4.59,0,0,1,0-2.39c.75-1.77,2.85-.54,3.88.24a47.71,47.71,0,0,1,4,3.3c-1.53-.78-3-1.64-4.55-2.34a4.67,4.67,0,0,0-2-.58s.21-.11.19-.1a5.6,5.6,0,0,0,.38,1.39C44.08,201.38,64,216.8,84.06,228.51Z" style="fill:#fff"></path><path d="M65.26,243.18c4.12,3,9.6,2.92,14.49,3.65,4.64.51,11.07.89,15.58,2a34.22,34.22,0,0,1-24-.05c-2.45-1.17-5.35-2.82-6.06-5.64Z" style="fill:#fff"></path><path d="M95.4,257A56.6,56.6,0,0,1,89,267.36c-2.1,3.2-5.18,5.92-5.82,9.82-1.49-1.76-1.05-4.51-.42-6.54A24.22,24.22,0,0,1,95.4,257Z" style="fill:#fff"></path><path d="M159,233.13a56.24,56.24,0,0,1,6.22,10.43c1.87,3.34,2.88,7.32,6,9.68-2.25.52-4.49-1.14-6-2.63A24.25,24.25,0,0,1,159,233.13Z" style="fill:#fff"></path></g></svg>
